# xmcd
# 
# Track frame offsets:
#     150
#     6161
#     22277
#     41821
#     49930
#     99137
# 
# Disc length: 1488
# 
# Revision: 0
# Processed by: cddbd v1.5.2PL0 Copyright (c) Steve Scherf et al.
# Submitted via: BonkEnc v1.0.8
# 
DISCID=4705ce06
DTITLE=Adest Musica - The Musketeer - preview
DYEAR=2008
DGENRE=Instrumental
TTITLE0=The Musketeer - Part 1
TTITLE1=The Musketeer - Part 2
TTITLE2=The Musketeer - Part 3 - Part 4
TTITLE3=The Musketeer - Part 5
TTITLE4=The Musketeer - Part 1 - Part 2 - Part 3 - Part 4 - Part 5
TTITLE5=The Musketeer - Afmars
EXTD=
EXTT0=
EXTT1=
EXTT2=
EXTT3=
EXTT4=
EXTT5=
PLAYORDER=
